<?xml version="1.0" encoding="utf-8"?>
<!-- Generator: Adobe Illustrator 25.0.1, SVG Export Plug-In . SVG Version: 6.00 Build 0)  -->
<svg version="1.1" xmlns="http://www.w3.org/2000/svg" xmlns:xlink="http://www.w3.org/1999/xlink" x="0px" y="0px"
	 viewBox="0 0 700 400" style="enable-background:new 0 0 700 400;" xml:space="preserve">
<style type="text/css">
	.st0{fill:#E93323;}
	.st1{opacity:0.18;}
	.st2{fill:none;stroke:#000000;stroke-width:0.5;stroke-miterlimit:10;}
	.st3{fill:#FF0C00;}
	.st4{clip-path:url(#SVGID_4_);fill:#E93323;}
	.st5{clip-path:url(#SVGID_4_);fill:none;stroke:#FFFFFF;stroke-width:0.8025;stroke-miterlimit:10;}
	.st6{filter:url(#Adobe_OpacityMaskFilter);}
	.st7{fill:none;stroke:#FFFFFF;stroke-width:1.1856;stroke-miterlimit:10;}
	.st8{mask:url(#SVGID_5_);fill:#878787;}
	.st9{fill:#FFFFFF;}
	.st10{fill:none;stroke:#FFFFFF;stroke-miterlimit:10;}
	.st11{fill:#FF1500;}
	.st12{clip-path:url(#SVGID_9_);fill:#E93323;}
	.st13{clip-path:url(#SVGID_9_);fill:none;stroke:#FFFFFF;stroke-width:1.1081;stroke-miterlimit:10;}
	.st14{filter:url(#Adobe_OpacityMaskFilter_1_);}
	.st15{fill:none;stroke:#FFFFFF;stroke-width:1.0765;stroke-miterlimit:10;}
	.st16{mask:url(#SVGID_10_);fill:#878787;}
	.st17{opacity:0.91;fill:none;stroke:#FF0000;stroke-width:9;stroke-miterlimit:10;}
	.st18{fill:#F3F3F3;}
	.st19{fill:#FFFFFF;stroke:#E93323;stroke-width:9;stroke-miterlimit:10;}
	.st20{fill:#FFFFFF;stroke:#FFFFFF;stroke-width:5;stroke-linejoin:round;stroke-miterlimit:10;}
	.st21{fill:#E93323;stroke:#FFFFFF;stroke-width:5;stroke-linejoin:round;stroke-miterlimit:10;}
	.st22{clip-path:url(#SVGID_16_);}
	.st23{clip-path:url(#SVGID_18_);}
	.st24{clip-path:url(#SVGID_20_);}
	.st25{opacity:0.91;}
	.st26{opacity:0.91;fill:none;stroke:#FF0000;stroke-width:6;stroke-miterlimit:10;}
	.st27{fill:#FFFCFA;}
	.st28{fill:#335690;}
	.st29{fill:#DE3C3A;}
	.st30{fill:#D2D2D2;}
	.st31{clip-path:url(#SVGID_22_);fill:#E93323;}
	.st32{clip-path:url(#SVGID_22_);fill:none;stroke:#FFFFFF;stroke-width:0.2911;stroke-miterlimit:10;}
	.st33{fill:none;stroke:#DE3C3A;stroke-width:9;stroke-miterlimit:10;}
	.st34{opacity:0.3;}
	.st35{clip-path:url(#SVGID_24_);fill:#E93323;}
	.st36{clip-path:url(#SVGID_24_);fill:none;stroke:#FFFFFF;stroke-width:0.6009;stroke-miterlimit:10;}
	.st37{fill:none;stroke:#B22828;stroke-width:9;stroke-miterlimit:10;}
	.st38{fill:none;stroke:#DE3C3A;stroke-width:9;stroke-linecap:round;stroke-miterlimit:10;}
	.st39{filter:url(#Adobe_OpacityMaskFilter_2_);}
	.st40{clip-path:url(#SVGID_26_);fill:#FFFFFF;}
	.st41{opacity:0.42;clip-path:url(#SVGID_26_);mask:url(#_x30_ayzGx_1_);}
	.st42{fill:#00FFFF;}
	.st43{fill:#FFFFFF;stroke:#FFFFFF;stroke-width:3.8477;stroke-linejoin:round;stroke-miterlimit:10;}
	.st44{fill:#E93323;stroke:#FFFFFF;stroke-width:3.8477;stroke-linejoin:round;stroke-miterlimit:10;}
	.st45{display:none;}
	.st46{display:inline;}
</style>
<g id="Layer_1">
	<g>
		<g>
			<g>
				<path class="st43" d="M310.9,180.9v66.7h-21.7l-0.7-10.8h-0.3c-1,2.6-2.5,4.8-4.4,6.5c-1.9,1.7-4,3-6.4,3.9
					c-2.3,0.9-4.9,1.5-7.6,1.8c-2.7,0.3-5.4,0.5-8.2,0.5c-8.1,0-14.6-1.3-19.3-4c-4.7-2.7-8.3-6.7-10.7-12.1
					c-2.4-5.4-3.9-12-4.6-19.9c-0.6-7.9-0.9-17-0.9-27.2c0-10.3,0.6-19.4,1.8-27.3c1.2-7.9,3.5-14.6,6.9-19.9c3.4-5.4,8-9.5,14-12.3
					c6-2.8,13.6-4.2,23-4.2c5.6,0,10.8,0.7,15.6,2.2c4.8,1.5,8.9,3.9,12.3,7.2c3.4,3.3,6.1,7.6,8.1,12.8c1.9,5.2,2.9,11.5,2.9,19
					h-30.9c0-6.5-0.6-11.3-1.7-14.3c-1.1-3.6-3.6-5.3-7.4-5.3c-2.6,0-4.7,0.6-6.3,1.9c-1.5,1.3-2.7,3.5-3.4,6.7
					c-0.7,3.2-1.2,7.5-1.5,13c-0.2,5.4-0.3,12.3-0.3,20.5c0,8.3,0.1,15.1,0.3,20.5c0.2,5.4,0.7,9.8,1.5,13c0.7,3.2,1.8,5.4,3.3,6.7
					c1.4,1.3,3.4,1.9,5.8,1.9c1.7,0,3.2-0.3,4.6-1c1.3-0.7,2.4-2,3.4-3.9c0.9-1.9,1.6-4.5,2.1-7.9c0.5-3.4,0.8-7.7,0.8-13h-11.3
					v-21.7H310.9z"/>
				<path class="st43" d="M393.6,124.8V151h-40.7v21H391V197h-38.2v24.4h42.3v26.1h-74.3V124.8H393.6z"/>
				<path class="st43" d="M396.2,152v-27.2h79.8V152h-24.1v95.6h-32V152H396.2z"/>
				<path class="st43" d="M67.8,269.6v122.7h-32V269.6H67.8z"/>
				<path class="st43" d="M114.4,269.6l20.6,75.6h0.3v-75.6h29.9v122.7h-35.1l-21.3-75.8h-0.3v75.8H78.7V269.6H114.4z"/>
				<path class="st43" d="M225.1,302c0-3.7-0.7-6.8-2.2-9.4c-1.5-2.6-3.8-3.9-6.9-3.9c-3.4,0-6,1.1-7.6,3.4
					c-1.6,2.2-2.4,4.7-2.4,7.5c0,4,1.3,7.2,3.9,9.5c2.6,2.4,5.8,4.4,9.7,6.1c3.9,1.7,8.1,3.5,12.5,5.2c4.5,1.8,8.7,4.1,12.5,7
					c3.9,2.9,7.1,6.6,9.7,11.3c2.6,4.6,3.9,10.7,3.9,18.1c0,13.1-3.7,22.5-11.2,28.5c-7.5,5.9-18.2,8.9-32.3,8.9
					c-6.6,0-12.5-0.5-17.6-1.6c-5.1-1.1-9.4-3-12.9-5.7c-3.5-2.7-6.2-6.2-8-10.6c-1.8-4.4-2.8-9.7-2.8-16.2v-4.3h30.9v2.9
					c0,5.3,1,9,2.9,11.1c1.9,2.1,4.5,3.2,7.6,3.2c3.3,0,5.9-1.1,7.6-3.4c1.8-2.3,2.7-5.1,2.7-8.4c0-4-1.2-7.2-3.7-9.5
					c-2.5-2.3-5.6-4.4-9.3-6c-3.7-1.7-7.8-3.4-12.1-5.1c-4.4-1.7-8.4-4-12.1-6.7c-3.7-2.8-6.8-6.4-9.3-10.8
					c-2.5-4.5-3.7-10.3-3.7-17.5c0-12.5,3.3-22,10-28.5c6.6-6.5,16.7-9.8,30.3-9.8c14,0,24.1,3,30.3,9c6.2,6,9.4,15.6,9.4,28.8
					h-29.9V302z"/>
				<path class="st43" d="M313.3,269.6c6.1,0,11.3,1,15.8,2.9c4.5,2,8.2,4.6,11.1,8c2.9,3.4,5.1,7.4,6.4,11.9
					c1.4,4.6,2.1,9.6,2.1,15c0,12.7-3.4,22.3-10.2,28.6c-6.8,6.4-16.8,9.5-30,9.5h-11.2v46.8h-32V269.6H313.3z M303.3,322.5
					c4,0,7.1-1.2,9.2-3.6c2.1-2.4,3.2-6.2,3.2-11.3c0-10-4.1-15-12.4-15h-6v29.9H303.3z"/>
				<path class="st43" d="M386.5,269.6v122.7h-32V269.6H386.5z"/>
				<path class="st43" d="M447.4,269.6c6.1,0,11.3,0.8,15.6,2.4c4.3,1.6,7.8,3.9,10.5,6.8c2.7,2.9,4.6,6.4,5.8,10.4
					c1.2,4,1.8,8.4,1.8,13.1c0,8.3-1.7,14.9-5,19.9c-3.3,5-8.7,8.1-16,9.3v0.3c7.7,0.7,12.9,3.4,15.8,8.1c2.9,4.7,4.3,11.2,4.3,19.4
					v10.5c0,1.6,0,3.3,0,5c0,1.7,0.1,3.4,0.2,4.9c0.1,1.5,0.3,3,0.5,4.2c0.2,1.3,0.5,2.2,0.9,2.9c0.5,0.7,0.9,1.3,1.4,2
					c0.5,0.6,1.2,1.2,2.2,1.8v1.7h-34c-0.8-1.6-1.4-3.5-1.8-5.7c-0.4-2.2-0.7-4.4-0.9-6.5c-0.2-2.2-0.3-4.3-0.3-6.3
					c-0.1-2-0.1-3.6-0.1-4.9v-8.3c0-3.4-0.2-6.3-0.5-8.6c-0.3-2.3-0.9-4.1-1.8-5.4c-0.9-1.3-1.9-2.2-3.3-2.8c-1.3-0.5-3-0.8-4.9-0.8
					h-8.4v49.2h-32V269.6H447.4z M435.7,321.5c4.6,0,8-1.3,10.1-4c2.2-2.7,3.3-6.2,3.3-10.6c0-5.2-1.1-8.8-3.2-11
					c-2.1-2.2-5.6-3.3-10.4-3.3h-6.2v28.9H435.7z"/>
				<path class="st43" d="M565.6,269.6v26.1h-40.7v21h38.2v25.1h-38.2v24.4h42.3v26.1h-74.3V269.6H565.6z"/>
				<path class="st43" d="M622.2,269.6c9.3,0,16.5,1.7,21.7,5.1c5.2,3.4,9,7.9,11.6,13.6c2.6,5.7,4.2,12.2,4.7,19.6
					c0.6,7.4,0.9,15.1,0.9,23.1c0,8-0.3,15.7-0.9,23.1c-0.6,7.4-2.1,13.9-4.7,19.6c-2.6,5.7-6.4,10.2-11.6,13.6
					c-5.2,3.4-12.4,5.1-21.7,5.1h-46.4V269.6H622.2z M614.1,369.3c3.1,0,5.6-0.4,7.4-1.3c1.8-0.9,3.2-2.7,4.2-5.4
					c1-2.8,1.6-6.6,1.9-11.7c0.3-5,0.4-11.7,0.4-19.9c0-8.3-0.1-14.9-0.4-19.9c-0.3-5-0.9-8.9-1.9-11.7c-1-2.8-2.4-4.6-4.2-5.4
					c-1.8-0.9-4.3-1.3-7.4-1.3h-6.4v76.7H614.1z"/>
			</g>
			<g>
				<g>
					<path class="st44" d="M307,177v66.7h-21.7l-0.7-10.8h-0.3c-1,2.6-2.5,4.8-4.4,6.5c-1.9,1.7-4,3-6.4,3.9
						c-2.3,0.9-4.9,1.5-7.6,1.8c-2.7,0.3-5.4,0.5-8.2,0.5c-8.1,0-14.6-1.3-19.3-4c-4.7-2.7-8.3-6.7-10.7-12.1
						c-2.4-5.4-3.9-12-4.6-19.9c-0.6-7.9-0.9-17-0.9-27.2c0-10.3,0.6-19.4,1.8-27.3c1.2-7.9,3.5-14.6,6.9-19.9
						c3.4-5.4,8-9.5,14-12.3c6-2.8,13.6-4.2,23-4.2c5.6,0,10.8,0.7,15.6,2.2c4.8,1.5,8.9,3.9,12.3,7.2c3.4,3.3,6.1,7.6,8.1,12.8
						c1.9,5.2,2.9,11.5,2.9,19h-30.9c0-6.5-0.6-11.3-1.7-14.3c-1.1-3.6-3.6-5.3-7.4-5.3c-2.6,0-4.7,0.6-6.3,1.9
						c-1.5,1.3-2.7,3.5-3.4,6.7c-0.7,3.2-1.2,7.5-1.5,13c-0.2,5.4-0.3,12.3-0.3,20.5c0,8.3,0.1,15.1,0.3,20.5
						c0.2,5.4,0.7,9.8,1.5,13c0.7,3.2,1.8,5.4,3.3,6.7c1.4,1.3,3.4,1.9,5.8,1.9c1.7,0,3.2-0.3,4.6-1c1.3-0.7,2.4-2,3.4-3.9
						c0.9-1.9,1.6-4.5,2.1-7.9c0.5-3.4,0.8-7.7,0.8-13h-11.3V177H307z"/>
					<path class="st44" d="M389.7,121v26.1H349v21h38.2v25.1H349v24.4h42.3v26.1H317V121H389.7z"/>
					<path class="st44" d="M392.3,148.1V121h79.8v27.2H448v95.6h-32v-95.6H392.3z"/>
					<path class="st44" d="M64,265.7v122.7H32V265.7H64z"/>
					<path class="st44" d="M110.5,265.7l20.6,75.6h0.3v-75.6h29.9v122.7h-35.1L105,312.6h-0.3v75.8H74.8V265.7H110.5z"/>
					<path class="st44" d="M221.3,298.2c0-3.7-0.7-6.8-2.2-9.4c-1.5-2.6-3.8-3.9-6.9-3.9c-3.4,0-6,1.1-7.6,3.4
						c-1.6,2.2-2.4,4.7-2.4,7.5c0,4,1.3,7.2,3.9,9.5c2.6,2.4,5.8,4.4,9.7,6.1c3.9,1.7,8.1,3.5,12.5,5.2c4.5,1.8,8.7,4.1,12.5,7
						c3.9,2.9,7.1,6.6,9.7,11.3c2.6,4.6,3.9,10.7,3.9,18.1c0,13.1-3.7,22.5-11.2,28.5c-7.5,5.9-18.2,8.9-32.3,8.9
						c-6.6,0-12.5-0.5-17.6-1.6c-5.1-1.1-9.4-3-12.9-5.7c-3.5-2.7-6.2-6.2-8-10.6c-1.8-4.4-2.8-9.7-2.8-16.2V352h30.9v2.9
						c0,5.3,1,9,2.9,11.1c1.9,2.1,4.5,3.2,7.6,3.2c3.3,0,5.9-1.1,7.6-3.4c1.8-2.3,2.7-5.1,2.7-8.4c0-4-1.2-7.2-3.7-9.5
						c-2.5-2.3-5.6-4.4-9.3-6c-3.7-1.7-7.8-3.4-12.1-5.1c-4.4-1.7-8.4-4-12.1-6.7c-3.7-2.8-6.8-6.4-9.3-10.8
						c-2.5-4.5-3.7-10.3-3.7-17.5c0-12.5,3.3-22,10-28.5c6.6-6.5,16.7-9.8,30.3-9.8c14,0,24.1,3,30.3,9c6.2,6,9.4,15.6,9.4,28.8
						h-29.9V298.2z"/>
					<path class="st44" d="M309.4,265.7c6.1,0,11.3,1,15.8,2.9c4.5,2,8.2,4.6,11.1,8c2.9,3.4,5.1,7.4,6.4,11.9
						c1.4,4.6,2.1,9.6,2.1,15c0,12.7-3.4,22.3-10.2,28.6c-6.8,6.4-16.8,9.5-30,9.5h-11.2v46.8h-32V265.7H309.4z M299.5,318.6
						c4,0,7.1-1.2,9.2-3.6c2.1-2.4,3.2-6.2,3.2-11.3c0-10-4.1-15-12.4-15h-6v29.9H299.5z"/>
					<path class="st44" d="M382.7,265.7v122.7h-32V265.7H382.7z"/>
					<path class="st44" d="M443.5,265.7c6.1,0,11.3,0.8,15.6,2.4c4.3,1.6,7.8,3.9,10.5,6.8c2.7,2.9,4.6,6.4,5.8,10.4
						c1.2,4,1.8,8.4,1.8,13.1c0,8.3-1.7,14.9-5,19.9c-3.3,5-8.7,8.1-16,9.3v0.3c7.7,0.7,12.9,3.4,15.8,8.1
						c2.9,4.7,4.3,11.2,4.3,19.4v10.5c0,1.6,0,3.3,0,5c0,1.7,0.1,3.4,0.2,4.9c0.1,1.5,0.3,3,0.5,4.2c0.2,1.3,0.5,2.2,0.9,2.9
						c0.5,0.7,0.9,1.3,1.4,2c0.5,0.6,1.2,1.2,2.2,1.8v1.7h-34c-0.8-1.6-1.4-3.5-1.8-5.7c-0.4-2.2-0.7-4.4-0.9-6.5
						c-0.2-2.2-0.3-4.3-0.3-6.3c-0.1-2-0.1-3.6-0.1-4.9v-8.3c0-3.4-0.2-6.3-0.5-8.6c-0.3-2.3-0.9-4.1-1.8-5.4
						c-0.9-1.3-1.9-2.2-3.3-2.8c-1.3-0.5-3-0.8-4.9-0.8h-8.4v49.2h-32V265.7H443.5z M431.8,317.6c4.6,0,8-1.3,10.1-4
						c2.2-2.7,3.3-6.2,3.3-10.6c0-5.2-1.1-8.8-3.2-11c-2.1-2.2-5.6-3.3-10.4-3.3h-6.2v28.9H431.8z"/>
					<path class="st44" d="M561.8,265.7v26.1H521v21h38.2v25.1H521v24.4h42.3v26.1h-74.3V265.7H561.8z"/>
					<path class="st44" d="M618.3,265.7c9.3,0,16.5,1.7,21.7,5.1c5.2,3.4,9,7.9,11.6,13.6c2.6,5.7,4.2,12.2,4.7,19.6
						c0.6,7.4,0.9,15.1,0.9,23.1c0,8-0.3,15.7-0.9,23.1c-0.6,7.4-2.1,13.9-4.7,19.6c-2.6,5.7-6.4,10.2-11.6,13.6
						c-5.2,3.4-12.4,5.1-21.7,5.1h-46.4V265.7H618.3z M610.3,365.4c3.1,0,5.6-0.4,7.4-1.3c1.8-0.9,3.2-2.7,4.2-5.4
						c1-2.8,1.6-6.6,1.9-11.7c0.3-5,0.4-11.7,0.4-19.9c0-8.3-0.1-14.9-0.4-19.9c-0.3-5-0.9-8.9-1.9-11.7c-1-2.8-2.4-4.6-4.2-5.4
						c-1.8-0.9-4.3-1.3-7.4-1.3h-6.4v76.7H610.3z"/>
				</g>
			</g>
		</g>
		<g>
			<path d="M37.9,149.1l-8.7-8.7L54.6,115l8.7,8.7l-7.7,7.7l30.6,30.5L76,172l-30.6-30.5L37.9,149.1z"/>
			<path d="M83.1,91.4c2.2-1.7,4.2-2.9,6.2-3.5c2-0.6,3.8-0.8,5.6-0.5c1.8,0.3,3.4,1,5,2.1c1.5,1.1,3,2.5,4.3,4.1
				c2.3,2.9,3.6,5.7,3.8,8.5c0.2,2.7-0.8,5.3-3.1,7.8l0.1,0.1c2.9-1.9,5.5-2.4,7.9-1.6c2.3,0.9,4.6,2.8,7,5.7l2.9,3.7
				c0.4,0.6,0.9,1.2,1.4,1.8c0.5,0.6,1,1.2,1.4,1.7c0.5,0.5,0.9,1,1.4,1.3c0.4,0.4,0.8,0.6,1.1,0.8c0.4,0.1,0.7,0.2,1,0.3
				c0.3,0.1,0.8,0.1,1.3,0l0.5,0.6l-12.1,9.5c-0.7-0.3-1.5-0.8-2.2-1.5c-0.8-0.7-1.5-1.4-2.1-2.1c-0.7-0.7-1.3-1.4-1.9-2.1
				c-0.6-0.7-1-1.3-1.4-1.7l-2.3-2.9c-1-1.2-1.8-2.2-2.6-2.9c-0.8-0.7-1.5-1.2-2.2-1.4c-0.7-0.2-1.3-0.2-1.9-0.1
				c-0.6,0.2-1.3,0.6-2,1.1l-3,2.4l13.7,17.4l-11.3,8.9l-34.3-43.5L83.1,91.4z M93.4,113.1c1.6-1.3,2.4-2.7,2.5-4.3
				c0-1.6-0.6-3.1-1.8-4.7c-1.4-1.8-2.8-2.8-4.2-3c-1.4-0.2-2.9,0.4-4.6,1.8l-2.2,1.7l8.1,10.2L93.4,113.1z"/>
			<path d="M133.5,57.6l40,40.7l-13.2,7.9l-6.2-7.6l-9.9,5.9l3.7,9.1l-13,7.8l-17-54.4L133.5,57.6z M131.4,72.1l8.7,22.2l6.9-4.1
				L131.6,72L131.4,72.1z"/>
			<path d="M164.5,41.7l22.4,35.7l0.1-0.1l-11.8-40.5l14-6.3L201,86.1l-17,7.6l-33.4-45.8L164.5,41.7z"/>
			<path d="M233.3,16.3l3.5,11.3l-17.6,5.5l2.8,9l16.5-5.1l3.4,10.8l-16.5,5.1l3.3,10.5l18.2-5.7l3.5,11.3l-32,10L202,26.1
				L233.3,16.3z"/>
			<path d="M263.8,9.7l8.2,42.9l17.5-3.3l2.2,11.6l-31.6,6l-10.4-54.4L263.8,9.7z"/>
			<path d="M320,26.6l0.6,6.6l-22.5,2l-0.6-6.6L320,26.6z"/>
			<path d="M324.5,17.6l-0.2-7.1l21-0.5l0.2,7.1l-6.3,0.1l0.6,25.2l-8.4,0.2l-0.6-25.2L324.5,17.6z"/>
			<path d="M352.4,18.5c0.5-2.1,1.2-3.8,2.2-5.1c1-1.3,2.2-2.2,3.7-2.8c1.5-0.6,3.3-0.8,5.5-0.7c2.1,0.1,3.9,0.5,5.4,1.2
				c1.4,0.7,2.6,1.7,3.4,3.1c0.8,1.4,1.4,3.1,1.7,5.3c0.3,2.1,0.4,4.7,0.2,7.7c-0.1,3-0.4,5.6-0.9,7.7c-0.5,2.1-1.2,3.8-2.2,5.1
				c-1,1.3-2.2,2.2-3.7,2.7c-1.5,0.5-3.3,0.7-5.5,0.6c-2.1-0.1-3.9-0.5-5.4-1.1c-1.5-0.6-2.6-1.6-3.4-3c-0.8-1.4-1.4-3.1-1.7-5.3
				c-0.3-2.1-0.4-4.7-0.2-7.7C351.6,23.1,351.9,20.6,352.4,18.5z M360,31.9c0,1.4,0.1,2.6,0.2,3.4c0.2,0.9,0.4,1.5,0.8,1.8
				c0.4,0.3,0.9,0.5,1.5,0.6c0.6,0,1.1-0.1,1.5-0.4c0.4-0.3,0.7-0.9,0.9-1.7c0.2-0.8,0.4-2,0.5-3.4c0.1-1.4,0.2-3.2,0.3-5.4
				c0.1-2.2,0.1-4,0.2-5.4c0-1.4-0.1-2.6-0.2-3.4c-0.2-0.9-0.4-1.5-0.8-1.8c-0.4-0.3-0.9-0.5-1.5-0.6c-0.6,0-1.1,0.1-1.5,0.4
				c-0.4,0.3-0.7,0.9-0.9,1.7c-0.2,0.8-0.4,2-0.5,3.4c-0.1,1.4-0.2,3.2-0.3,5.4C360,28.7,360,30.5,360,31.9z"/>
			<path d="M402.8,30.1l-0.8,6.6L379.6,34l0.8-6.6L402.8,30.1z"/>
			<path d="M442.8,52.3c-1.4,6.5-3.9,10.8-7.4,12.8c-3.6,2-8.2,2.4-14.1,1.1c-5.9-1.3-9.8-3.7-11.7-7.1c-1.9-3.5-2.2-8.1-1-13.7
				l0.2-1.1l12.7,2.7l-0.6,2.7c-0.6,2.6-0.6,4.4-0.1,5.4c0.5,1,1.3,1.6,2.3,1.9c1.1,0.2,2,0,2.9-0.7c0.9-0.7,1.6-2.4,2.1-4.9
				l8.5-39.2l14.1,3L442.8,52.3z"/>
			<path d="M493,28.5l-5.4,56.8l-14.5-5l1.8-9.7L464,66.8l-4.6,8.7l-14.3-5l30.7-48L493,28.5z M480.6,36.2l-11.4,20.9l7.6,2.6
				l4-23.5L480.6,36.2z"/>
			<path d="M537.3,47.9c2.5,1.2,4.4,2.7,5.8,4.4c1.4,1.7,2.4,3.5,2.9,5.5c0.5,2,0.6,4,0.2,6.1c-0.4,2.1-1.1,4.3-2.2,6.5
				c-2.5,5.1-5.8,8.3-9.9,9.5c-4,1.2-8.7,0.5-14.1-2.2l-4.5-2.2l-9.4,18.9l-12.9-6.4l24.6-49.7L537.3,47.9z M522.6,67.3
				c1.6,0.8,3.1,0.9,4.4,0.4c1.3-0.5,2.5-1.9,3.6-4c2-4,1.3-6.9-2-8.5l-2.4-1.2l-6,12.1L522.6,67.3z"/>
			<path d="M585.5,76.3l-19,53.8l-12.9-8.4l4.1-8.9l-9.6-6.3l-6.5,7.3l-12.7-8.3l41.4-39.2L585.5,76.3z M571.6,80.8l-16.2,17.5
				l6.8,4.4l9.5-21.9L571.6,80.8z"/>
			<path d="M620.1,102.8l-15.2,32l0.1,0.1l22.2-25.9l10.2,8.8l-36.1,42.1l-12-10.3l15-32.2l-0.1-0.1l-22.3,26l-10.2-8.8l36.1-42.1
				L620.1,102.8z"/>
			<path d="M628.8,170.9l-8.9,8.4l-8.9-9.5l8.9-8.4L628.8,170.9z M651.1,131.6l9.3,9.8l-13.5,12.7l-16.3,13.1l-7.1-7.6l14.1-15.3
				L651.1,131.6z"/>
		</g>
		<g>
			<g>
				<path class="st9" d="M679.1,380.6l-3.3,9.5l-10.2-3.5l3.3-9.5L679.1,380.6z M680.3,343.4l10.5,3.6l-5,14.4l-6.8,15.8l-8.1-2.8
					l4.4-16.6L680.3,343.4z"/>
			</g>
		</g>
		<g>
			<path class="st0" d="M676.8,377.5l-3.3,9.5l-10.2-3.5l3.3-9.5L676.8,377.5z M678,340.3l10.5,3.6l-5,14.4l-6.8,15.8l-8.1-2.8
				l4.4-16.6L678,340.3z"/>
		</g>
	</g>
</g>
<g id="floating_element" class="st45">
</g>
<g id="guide">
</g>
</svg>
