<svg id="Layer_1" data-name="Layer 1" xmlns="http://www.w3.org/2000/svg" viewBox="0 0 880 460"><defs><style>.cls-1,.cls-3{fill:#fff;}.cls-1,.cls-2{stroke:#fff;stroke-linejoin:round;stroke-width:5px;}.cls-2,.cls-4{fill:#e93323;}</style></defs><path class="cls-1" d="M375.61,175v86.68H347.46l-.89-14.08h-.45a22.18,22.18,0,0,1-5.69,8.49,25,25,0,0,1-8.27,5,45.14,45.14,0,0,1-9.83,2.34,83,83,0,0,1-10.61.67q-15.87,0-25-5.25a33,33,0,0,1-13.85-15.74q-4.69-10.5-5.92-25.92t-1.23-35.29a239,239,0,0,1,2.35-35.52q2.34-15.4,8.93-25.91a42.3,42.3,0,0,1,18.21-16Q306.8,99,325.12,99a67.21,67.21,0,0,1,20.22,2.91,39.72,39.72,0,0,1,16,9.38A44.26,44.26,0,0,1,371.81,128q3.79,10.17,3.8,24.69H335.4q0-12.74-2.23-18.54-2.25-6.93-9.61-6.93a12.5,12.5,0,0,0-8.15,2.46q-3,2.46-4.47,8.71a95.57,95.57,0,0,0-1.9,16.86q-.45,10.62-.45,26.7T309,208.6a95.59,95.59,0,0,0,1.9,16.87q1.46,6.25,4.24,8.71a10.92,10.92,0,0,0,7.49,2.46,12.69,12.69,0,0,0,5.92-1.34,10.6,10.6,0,0,0,4.35-5A37.1,37.1,0,0,0,335.73,220a115.61,115.61,0,0,0,1-16.87H322V175Z"/><path class="cls-1" d="M483.05,102.16v34H430.11v27.25H479.7V196H430.11V227.7h55v34H388.56V102.16Z"/><path class="cls-1" d="M486.41,137.46v-35.3H590.05v35.3H558.78v124.2H517.23V137.46Z"/><path class="cls-1" d="M59.75,290.23v159.5H18.2V290.23Z"/><path class="cls-1" d="M120.29,290.23l26.8,98.29h.45V290.23h38.87v159.5H140.84l-27.7-98.51h-.45v98.51H73.82V290.23Z"/><path class="cls-1" d="M264.14,332.45a24,24,0,0,0-2.9-12.17,9.63,9.63,0,0,0-8.94-5q-6.69,0-9.83,4.36a16.28,16.28,0,0,0-3.12,9.71q0,7.83,5,12.4A46,46,0,0,0,257,349.65q7.59,3.36,16.3,6.82a72.89,72.89,0,0,1,16.31,9,45,45,0,0,1,12.62,14.63q5,9.06,5,23.57,0,25.47-14.52,37t-42,11.5a110.13,110.13,0,0,1-22.9-2.12,41,41,0,0,1-16.75-7.37A33.25,33.25,0,0,1,200.7,429q-3.57-8.49-3.57-21v-5.59h40.21v3.8q0,10.27,3.79,14.41a12.77,12.77,0,0,0,9.83,4.13q6.48,0,9.94-4.47a17.31,17.31,0,0,0,3.47-10.94q0-7.83-4.81-12.4a42.23,42.23,0,0,0-12.06-7.82q-7.26-3.24-15.75-6.59A69.09,69.09,0,0,1,216,373.78a43,43,0,0,1-12.06-14.08q-4.8-8.7-4.8-22.78,0-24.35,13-37.08t39.31-12.73q27.25,0,39.43,11.72T303,336.25H264.14Z"/><path class="cls-1" d="M378.74,290.23a51.17,51.17,0,0,1,20.55,3.8,39.76,39.76,0,0,1,14.41,10.39,41.76,41.76,0,0,1,8.37,15.52,67.32,67.32,0,0,1,2.68,19.44q0,24.8-13.29,37.19t-39,12.4H358v60.76H316.41V290.23Zm-13,68.8q7.82,0,12-4.69t4.13-14.74q0-19.44-16.08-19.43H358V359Z"/><path class="cls-1" d="M473.89,290.23v159.5H432.34V290.23Z"/><path class="cls-1" d="M553,290.23q11.84,0,20.22,3.13a34.75,34.75,0,0,1,13.62,8.82,34.22,34.22,0,0,1,7.6,13.52,59,59,0,0,1,2.34,17q0,16.08-6.48,25.91T569.5,370.65v.45q15,1.33,20.55,10.5t5.59,25.24v20.1q0,3.36.22,6.37a51.8,51.8,0,0,0,.67,5.47,14.53,14.53,0,0,0,1.12,3.8c.59.89,1.19,1.75,1.78,2.57a8.84,8.84,0,0,0,2.91,2.34v2.24H558.11a27.39,27.39,0,0,1-2.35-7.37,85.08,85.08,0,0,1-1.12-8.49q-.33-4.25-.44-8.16c-.08-2.6-.11-4.72-.11-6.36V408.63a78.33,78.33,0,0,0-.67-11.17,17.72,17.72,0,0,0-2.35-7,8.92,8.92,0,0,0-4.24-3.57,17.62,17.62,0,0,0-6.37-1h-11v63.89H488V290.23Zm-15.19,67.46q8.93,0,13.18-5.25t4.24-13.73q0-10.05-4.13-14.3t-13.51-4.24h-8v37.52Z"/><path class="cls-1" d="M706.65,290.23v34H653.71v27.25H703.3v32.61H653.71v31.72h55v34H612.16V290.23Z"/><path class="cls-1" d="M780.15,290.23q18.09,0,28.14,6.59a41,41,0,0,1,15.08,17.65,75.14,75.14,0,0,1,6.14,25.47q1.13,14.4,1.12,30t-1.12,30a75.14,75.14,0,0,1-6.14,25.47,40.91,40.91,0,0,1-15.08,17.65q-10,6.58-28.14,6.59H719.83V290.23Zm-10.5,129.56a22.85,22.85,0,0,0,9.6-1.67q3.57-1.68,5.48-7t2.45-15.19q.55-9.83.56-25.91t-.56-25.91q-.55-9.82-2.45-15.19t-5.48-7a22.85,22.85,0,0,0-9.6-1.67h-8.27v99.62Z"/><path class="cls-2" d="M370.59,170v86.67H342.45l-.9-14.07h-.44a22.16,22.16,0,0,1-5.7,8.49,24.88,24.88,0,0,1-8.26,5,45.43,45.43,0,0,1-9.83,2.35,85.14,85.14,0,0,1-10.61.67q-15.87,0-25-5.25a33,33,0,0,1-13.85-15.75q-4.69-10.5-5.92-25.91t-1.23-35.3A238.89,238.89,0,0,1,263,141.38Q265.39,126,272,115.46a42.25,42.25,0,0,1,18.21-16Q301.79,94,320.11,94a67.51,67.51,0,0,1,20.21,2.9,39.78,39.78,0,0,1,16,9.39A44.43,44.43,0,0,1,366.8,123q3.79,10.17,3.79,24.68H330.38q0-12.74-2.23-18.54-2.23-6.91-9.6-6.92a12.58,12.58,0,0,0-8.16,2.45q-3,2.46-4.47,8.71A95.82,95.82,0,0,0,304,150.2q-.43,10.61-.44,26.69t.44,26.7a95.46,95.46,0,0,0,1.9,16.86q1.45,6.26,4.25,8.72a10.89,10.89,0,0,0,7.48,2.45,12.51,12.51,0,0,0,5.92-1.34,10.64,10.64,0,0,0,4.36-5A37.18,37.18,0,0,0,330.72,215a115.56,115.56,0,0,0,1-16.86H317V170Z"/><path class="cls-2" d="M478,97.15V131.1H425.1v27.25h49.59V191H425.1v31.72h54.95v33.95h-96.5V97.15Z"/><path class="cls-2" d="M481.39,132.44V97.15H585v35.29H553.77v124.2H512.22V132.44Z"/><path class="cls-2" d="M54.74,285.22V444.71H13.19V285.22Z"/><path class="cls-2" d="M115.27,285.22l26.81,98.29h.44V285.22h38.87V444.71H135.82l-27.7-98.51h-.44v98.51H68.81V285.22Z"/><path class="cls-2" d="M259.13,327.44a23.92,23.92,0,0,0-2.91-12.18,9.61,9.61,0,0,0-8.93-5q-6.71,0-9.83,4.35a16.27,16.27,0,0,0-3.13,9.72q0,7.81,5,12.4A46.59,46.59,0,0,0,252,344.64q7.59,3.35,16.31,6.81a73.08,73.08,0,0,1,16.3,9.05,45,45,0,0,1,12.63,14.63q5,9,5,23.57,0,25.46-14.52,37t-42,11.5a110.75,110.75,0,0,1-22.9-2.12,41.2,41.2,0,0,1-16.76-7.37,33.23,33.23,0,0,1-10.38-13.74q-3.58-8.49-3.58-21v-5.58h40.21v3.79q0,10.28,3.8,14.41a12.72,12.72,0,0,0,9.83,4.13q6.48,0,9.94-4.46a17.33,17.33,0,0,0,3.46-11q0-7.81-4.8-12.4a42.52,42.52,0,0,0-12.06-7.82q-7.26-3.22-15.75-6.59A68.71,68.71,0,0,1,211,368.76a42.83,42.83,0,0,1-12.06-14.07q-4.81-8.71-4.81-22.79,0-24.34,13-37.08t39.32-12.73q27.24,0,39.42,11.73T298,331.23H259.13Z"/><path class="cls-2" d="M373.72,285.22q11.83,0,20.55,3.8a39.65,39.65,0,0,1,14.41,10.38,41.82,41.82,0,0,1,8.38,15.53,67.6,67.6,0,0,1,2.68,19.43q0,24.79-13.29,37.19t-39,12.4H353v60.76H311.4V285.22Zm-13,68.8q7.83,0,12-4.69t4.13-14.75q0-19.43-16.09-19.43H353V354Z"/><path class="cls-2" d="M468.88,285.22V444.71H427.33V285.22Z"/><path class="cls-2" d="M548,285.22q11.85,0,20.22,3.12a34.62,34.62,0,0,1,13.63,8.83,34.17,34.17,0,0,1,7.59,13.51,58.71,58.71,0,0,1,2.35,17q0,16.08-6.48,25.91t-20.78,12.07v.44q15,1.35,20.56,10.5t5.58,25.24v20.11q0,3.35.22,6.36a52.34,52.34,0,0,0,.67,5.48,14.44,14.44,0,0,0,1.12,3.79c.6.9,1.19,1.76,1.79,2.57a8.69,8.69,0,0,0,2.9,2.35v2.23H553.09a27.64,27.64,0,0,1-2.34-7.37,79.59,79.59,0,0,1-1.12-8.49c-.22-2.83-.37-5.54-.45-8.15s-.11-4.73-.11-6.37V403.61a76.88,76.88,0,0,0-.67-11.17,17.94,17.94,0,0,0-2.34-7,9,9,0,0,0-4.25-3.57,17.54,17.54,0,0,0-6.36-1h-11v63.88H483V285.22Zm-15.19,67.46q8.94,0,13.18-5.25t4.25-13.74q0-10.05-4.13-14.3t-13.52-4.24h-8v37.53Z"/><path class="cls-2" d="M701.64,285.22v33.95H648.7v27.25h49.59V379H648.7v31.72h54.95v33.95h-96.5V285.22Z"/><path class="cls-2" d="M775.13,285.22q18.09,0,28.15,6.59a40.89,40.89,0,0,1,15.08,17.64,75.44,75.44,0,0,1,6.14,25.47q1.11,14.41,1.12,30T824.5,395a75.44,75.44,0,0,1-6.14,25.47,40.89,40.89,0,0,1-15.08,17.64q-10,6.6-28.15,6.59H714.82V285.22Zm-10.5,129.56a22.92,22.92,0,0,0,9.61-1.68q3.57-1.67,5.47-7t2.46-15.19q.55-9.83.56-25.92t-.56-25.91q-.55-9.82-2.46-15.19t-5.47-7a22.92,22.92,0,0,0-9.61-1.68h-8.26v99.63Z"/><path d="M146.8,105.13l-3.22-4.31,12.64-9.44,3.21,4.3-3.81,2.85,11.32,15.15-5.07,3.78-11.32-15.14Z"/><path d="M185.84,71.84a9.09,9.09,0,0,1,2.87-1.2,5.24,5.24,0,0,1,2.47.07,5.15,5.15,0,0,1,2.06,1.15,8.55,8.55,0,0,1,1.65,2,7,7,0,0,1,1.22,3.87A4.36,4.36,0,0,1,194.37,81l0,.06a3.76,3.76,0,0,1,3.5-.27,7.37,7.37,0,0,1,2.73,2.83l1.08,1.77.52.84c.18.29.35.56.53.81a8,8,0,0,0,.53.66,1.91,1.91,0,0,0,.44.4c.15.07.3.14.44.19a1.3,1.3,0,0,0,.56.08l.18.29-5.74,3.51a4.12,4.12,0,0,1-.89-.77,9.78,9.78,0,0,1-.82-1c-.26-.35-.49-.69-.71-1l-.52-.82-.85-1.39a11.67,11.67,0,0,0-1-1.4,2.77,2.77,0,0,0-.86-.73,1.44,1.44,0,0,0-.83-.13,2.73,2.73,0,0,0-.91.38l-1.42.87,5.08,8.29-5.4,3.31L177.4,77Zm3.39,10a2.43,2.43,0,0,0,1.29-1.73A3.21,3.21,0,0,0,190,78a3.07,3.07,0,0,0-1.67-1.53,2.77,2.77,0,0,0-2.09.53l-1.05.63,3,4.88Z"/><path d="M226.1,50.11,242,69.35l-6.05,3-2.44-3.54L229,71l1.28,4.1-6,2.9-5.39-24.37Zm-1.44,6.22,2.94,10,3.18-1.54-6.06-8.51Z"/><path d="M257.92,36.47l8.84,16.22.06,0-4.07-18,6.3-2.38,3.67,24.57-7.63,2.88L251.72,38.81Z"/><path d="M306.88,20.79l1.37,5-7.77,2.14,1.09,4,7.28-2,1.32,4.78-7.28,2,1.28,4.66,8.06-2.22,1.37,5L299.44,48,293,24.6Z"/><path d="M339.18,13.81l3.38,18.81,7.66-1.38.92,5.09-13.89,2.49L333,14.93Z"/><path d="M400.15,17.86l.15,2.89-9.89.54-.16-2.89Z"/><path d="M407.28,13.77l0-3.13,9.2-.15.05,3.13-2.78,0,.19,11-3.69.06-.18-11Z"/><path d="M424.45,14.2a5.94,5.94,0,0,1,.9-2.26,3.4,3.4,0,0,1,1.6-1.25,6.09,6.09,0,0,1,2.38-.36,6.24,6.24,0,0,1,2.37.46,3.53,3.53,0,0,1,1.54,1.32,6.1,6.1,0,0,1,.8,2.3,19,19,0,0,1,.19,3.39,19.28,19.28,0,0,1-.33,3.37,6.1,6.1,0,0,1-.91,2.26,3.24,3.24,0,0,1-1.59,1.22A6.54,6.54,0,0,1,429,25a6.69,6.69,0,0,1-2.37-.43,3.39,3.39,0,0,1-1.54-1.29,6.1,6.1,0,0,1-.8-2.3,19.13,19.13,0,0,1-.18-3.39A19.28,19.28,0,0,1,424.45,14.2ZM427.91,20a8.13,8.13,0,0,0,.14,1.5,1.42,1.42,0,0,0,.36.78,1,1,0,0,0,.66.23.93.93,0,0,0,.66-.2,1.49,1.49,0,0,0,.4-.77,8.83,8.83,0,0,0,.2-1.49q.06-.95.09-2.37c0-.95,0-1.74,0-2.37a8.26,8.26,0,0,0-.13-1.5,1.49,1.49,0,0,0-.36-.78,1,1,0,0,0-.66-.23,1,1,0,0,0-.67.2,1.42,1.42,0,0,0-.39.77,7.9,7.9,0,0,0-.2,1.49c0,.63-.07,1.42-.1,2.37S427.9,19.4,427.91,20Z"/><path d="M451.79,18.63l-.18,2.89-9.89-.61L441.9,18Z"/><path d="M510.72,33c-.56,2.86-1.62,4.75-3.16,5.66s-3.59,1.11-6.15.61-4.33-1.52-5.19-3a8.62,8.62,0,0,1-.55-6l.1-.5,5.61,1.1L501.15,32a3.94,3.94,0,0,0,0,2.36,1.48,1.48,0,0,0,2.3.45,4.11,4.11,0,0,0,.9-2.18l3.4-17.25L514,16.6Z"/><path d="M551.32,26.33l-1.22,25-6.46-1.91.59-4.26-4.83-1.43-1.82,3.9-6.36-1.89,12.47-21.62ZM546.06,30l-4.59,9.38,3.39,1L546.13,30Z"/><path d="M589.36,39.89a7.86,7.86,0,0,1,2.68,1.7,6.05,6.05,0,0,1,1.45,2.29,6.42,6.42,0,0,1,.29,2.67,10.2,10.2,0,0,1-.72,2.89c-.95,2.34-2.28,3.83-4,4.5s-3.79.5-6.21-.47l-2.05-.83-3.46,8.58-5.86-2.37,9.08-22.51Zm-5.75,9a2.31,2.31,0,0,0,2,0A3.38,3.38,0,0,0,587,47q1.11-2.74-1.16-3.66l-1.11-.44-2.21,5.48Z"/><path d="M629.11,58.39l-5.87,24.29-6-3.08,1.37-4.08-4.47-2.3-2.52,3.48-5.9-3L622,54.75ZM623.27,61,617,69.33,620.15,71l3.18-10Z"/><path d="M662.16,77.67l-4.69,14.78.06,0,8.12-12.56,5,3.2-13.16,20.4-5.83-3.76,4.59-14.89-.06,0L648,97.43l-5-3.2,13.17-20.4Z"/><path d="M686.27,118,683,122.24l-4.51-3.5,3.29-4.24Zm7-18.51,4.68,3.63-5,6.41-6.16,6.76-3.59-2.8,5.08-7.59Z"/><path class="cls-3" d="M854.14,434.5l-4.26,12.4-13.2-4.54L841,430Zm1.51-48.31,13.66,4.7-6.45,18.77L854,430.13l-10.52-3.61L849.2,405Z"/><path class="cls-4" d="M851.14,430.5l-4.26,12.4-13.2-4.54L838,426Zm1.51-48.31,13.66,4.7-6.45,18.77L851,426.13l-10.52-3.61L846.2,401Z"/></svg>