<?xml version="1.0" encoding="utf-8"?>
<!-- Generator: Adobe Illustrator 19.0.0, SVG Export Plug-In . SVG Version: 6.00 Build 0)  -->
<!DOCTYPE svg PUBLIC "-//W3C//DTD SVG 1.1//EN" "http://www.w3.org/Graphics/SVG/1.1/DTD/svg11.dtd">
<svg version="1.1" id="Layer_1" xmlns="http://www.w3.org/2000/svg" xmlns:xlink="http://www.w3.org/1999/xlink" x="0px" y="0px"
	 width="24px" height="24px" viewBox="-467 269 24 24" style="enable-background:new -467 269 24 24;" xml:space="preserve">
<style type="text/css">
	.st0{fill:#FFFFFF;}
</style>
<g>
	<polygon class="st0" points="-465,276.8 -461.1,276.3 -461.1,290 -465,290 	"/>
	<polygon class="st0" points="-460.6,276.5 -460.6,290 -458.9,290 -458.9,277.4 	"/>
	<g>
		<polygon class="st0" points="-463,275.9 -461.3,275.7 -461,275.7 -460.8,275.8 -459.6,276.4 -450,276.8 -450,290 -445,290 
			-445,273.5 -463,273.5 		"/>
		<rect x="-463" y="272.4" class="st0" width="18" height="0.6"/>
		<polygon class="st0" points="-458.3,277.1 -458.3,277.4 -458.3,277.6 -452.2,277.9 -452.2,290 -450.6,290 -450.6,277.9 
			-450.6,277.4 -458.3,277 		"/>
	</g>
</g>
</svg>
