<?xml version="1.0" encoding="utf-8"?>
<!-- Generator: Adobe Illustrator 19.0.0, SVG Export Plug-In . SVG Version: 6.00 Build 0)  -->
<!DOCTYPE svg PUBLIC "-//W3C//DTD SVG 1.1//EN" "http://www.w3.org/Graphics/SVG/1.1/DTD/svg11.dtd">
<svg version="1.1" id="Layer_1" xmlns="http://www.w3.org/2000/svg" xmlns:xlink="http://www.w3.org/1999/xlink" x="0px" y="0px"
	 width="24px" height="24px" viewBox="-467 269 24 24" style="enable-background:new -467 269 24 24;" xml:space="preserve">
<style type="text/css">
	.st0{fill:#FFFFFF;}
</style>
<path class="st0" d="M-457.2,277.9c1.4,0,2.9,0,4.3,0c0.7,0,1.4,0,2.2,0c0.5,0,1.5,0.2,1.8-0.4c0.7-1.2-1.9-0.2-1.9-1.5
	c0.1-1.1,2.5,0.2,2.3-1.1c-0.1-0.7-3,0-2.3-1.3c0.2-0.4,0.9-0.3,1.3-0.3c0.3,0,1.4-0.1,0.8-0.7c-0.3-0.2-1.1-0.1-1.4-0.1
	c-0.7,0-1.3,0-2,0.2c-0.6,0.1-1.1,0.4-1.2,1c-0.1,0.4,0,1.2,0.4,1.4c0.4,0.3,1.1-0.1,1.3,0.4c0.3,0.4,0.1,1.4-0.3,1.6
	c-1.2,0.8-1.6-1.1-2.6-1.1c-0.6,0-1.2,0.5-1.7,0.7c-0.7,0.2-1.3,0.4-2,0.4c-1.4,0.1-2.9,0.1-4.3,0c-0.6,0-0.9,0-0.9-0.6
	s0.2-1.3,0.1-1.9c-0.2-1.1-1.2-1.9-1.4-3.1c-0.2-1.4,1.7-1.1,2.6-0.9c1.3,0.3,2.3,0.9,3.6,0.9c0.6,0,1.1-0.1,1.7-0.2s1.3,0,1.6-0.5
	c0.3-0.5,0.3-1,1.1-0.8c0.5,0.1,0.6,0.7,0.9,1c0.5,0.4,1.2,0.4,1.8,0.4c0.7,0,1.3-0.4,2-0.6c0.6-0.1,1.3,0,1.9,0s1.1,0,1.2,0.7
	c0.1,0.6-0.3,1.1-0.4,1.6c-0.1,0.6-0.1,1.3-0.1,2c0,0.6-0.1,1.4,0,2.1s0.6,0.5,1.1,0.6c1.4,0.2,1,1.6,0.8,2.7
	c-0.1,1.1-0.1,2.7-1.3,3.2c-0.5,0.2-1.1,0.1-1.7,0.3c-0.6,0.1-0.5,0.3-0.8,0.8c-0.5,0.7-2.6,0.5-3.4,0.5c-0.7,0-0.7,0.1-0.8,0.8
	c-0.1,0.7-0.3,1.5-0.6,2.1c-0.5,1.1-1.3,2.1-2.3,2.8c-1.1,0.8-2.4,1-3.8,1.1c-1.3,0-2.8,0-3.9-0.8c-1.2-0.9-0.8-2.2,0.2-3.1
	c0.4-0.4,1-0.9,1.6-0.7c0.5,0.1,0.7,0.7,1.1,1c0.9,0.6,2.8,0.6,3.8,0.2c1.1-0.5,1.6-1.8,1.5-3c-0.1-0.7-0.5-0.5-1.1-0.5
	c-0.7,0-1.4,0-2.1,0c-0.4,0-1.1-0.1-1.4,0.2c-0.1,0.1-0.1,0.3-0.2,0.5c-0.2,0.2-0.7,0.2-0.9,0.2c-0.5,0-1.1,0-1.4-0.4
	c-0.5-0.5-0.2-1.2-0.5-1.8c-0.3-0.5-0.9-0.3-1.3-0.8c-0.4-0.4-0.3-1.1-0.3-1.6c-0.1-0.9-1.4-2-0.6-3c0.4-0.5,1.2-0.3,1.7-0.3
	c0.7,0,1.5,0,2.2,0C-460,278-458.6,278-457.2,277.9C-455.7,277.9-457.7,277.9-457.2,277.9z M-459.7,282.7c0-0.2,3.5,0.6,2.8-0.7
	c-0.3-0.5-1.2-0.8-1.7-1c-0.6-0.3-1.1-0.6-1.7-0.9c-0.4-0.2-1.2-0.6-1.6-0.3c-0.5,0.2-0.3,1-0.3,1.4c0,0.5,0,1.2,0.6,1.4
	C-461.1,282.8-460.3,282.7-459.7,282.7h-0.2C-459.9,282.7-459.8,282.7-459.7,282.7C-459.7,282.7-460.2,282.7-459.7,282.7z
	 M-449.7,282.7c0.7-0.1,1.2,0,1.6-0.6c0.3-0.5,0.4-1,0.8-1.5c0.2-0.2,0.8-0.7,0.8-1c0-0.5-0.8-0.4-1.1-0.3c-1.1,0.2-2.3,0.8-2.9,1.7
	c-0.2,0.3-0.8,1.2-0.5,1.5C-451,282.7-449.7,282.8-449.7,282.7c0.1,0-0.1,0-0.1,0S-449.8,282.7-449.7,282.7
	C-449.5,282.7-450.2,282.7-449.7,282.7z M-460.9,275c0,0.4,1.7,0.3,2,0.3c0.4,0,0.9,0.3,1.2,0.3c0.3,0,0.5-0.3,0.7-0.5
	c0.6-0.5,1.1-0.7,0.9-1.6s-1.3-1.3-2.1-1.1c-0.3,0.1-0.6,0.3-1,0.4s-0.9,0-1.3,0.1c-0.2,0-1,0.1-0.6,0.5c0.2,0.2,1,0,1.3,0
	c0.6,0,2.1,0.4,1.2,1.2C-458.9,275.1-460.4,274.9-460.9,275C-460.8,275-460.8,275-460.9,275C-460.9,275-460.7,275-460.9,275z
	 M-454.5,279.5c-0.4,0-1-0.1-1.4-0.1c-0.5,0.1-0.5,0.3-0.3,0.7c0.4,0.6,1.3,1.6,2.1,1.4c0.6-0.1,1.5-0.9,1.5-1.5
	c0-0.8-1.6-0.7-2.2-0.6C-454.6,279.5-454.3,279.5-454.5,279.5C-454.9,279.5-454.2,279.5-454.5,279.5z"/>
</svg>
